<mxfile host="app.diagrams.net" modified="2023-10-11T14:24:59.241Z" agent="Mozilla/5.0 (Macintosh; Intel Mac OS X 10_15_7) AppleWebKit/605.1.15 (KHTML, like Gecko) Version/16.5 Safari/605.1.15" version="22.0.4" etag="wR9qps10S6_iziuMNqkO" type="github">
  <diagram name="Page-1" id="_DhSjUCvSS_EAhtGfZHj">
    <mxGraphModel>
      <root>
        <mxCell id="0" />
        <mxCell id="1" parent="0" />
      </root>
    </mxGraphModel>
  </diagram>
</mxfile>
